<svg width="9" height="18" viewBox="0 0 9 18" fill="none" xmlns="http://www.w3.org/2000/svg">
<path fill-rule="evenodd" clip-rule="evenodd" d="M2.28071 8.59778V16.8427C2.28071 16.9542 2.37356 17.0656 2.50355 17.0656H5.56755C5.67897 17.0656 5.79039 16.9727 5.79039 16.8427V8.44923H8.00019C8.11161 8.44923 8.20445 8.35638 8.22302 8.24496L8.40872 5.73805C8.42729 5.60806 8.31587 5.49664 8.18588 5.49664H5.77182V3.71395C5.77182 3.28684 6.10607 2.95259 6.53318 2.95259H8.24159C8.35301 2.95259 8.46443 2.85974 8.46443 2.72975V0.222837C8.46443 0.111418 8.37158 0 8.24159 0H5.34472C3.65487 0 2.28071 1.37416 2.28071 3.064V5.49664H0.757993C0.646575 5.49664 0.535156 5.58949 0.535156 5.71948V8.24496C0.535156 8.35638 0.628005 8.4678 0.757993 8.4678H2.28071V8.59778V8.59778Z" fill="white"/>
</svg>
