<svg width="8" height="18" viewBox="0 0 8 18" fill="none" xmlns="http://www.w3.org/2000/svg">
<path fill-rule="evenodd" clip-rule="evenodd" d="M1.76112 8.67447V16.993C1.76112 17.1054 1.8548 17.2178 1.98595 17.2178H5.07728C5.1897 17.2178 5.30211 17.1241 5.30211 16.993V8.52459H7.53162C7.64403 8.52459 7.7377 8.43091 7.75644 8.3185L7.94379 5.78923C7.96253 5.65808 7.85012 5.54567 7.71897 5.54567H5.28337V3.74707C5.28337 3.31616 5.62061 2.97892 6.05152 2.97892H7.77517C7.88759 2.97892 8 2.88525 8 2.7541V0.224824C8 0.112412 7.90632 0 7.77517 0H4.85246C3.14754 0 1.76112 1.38642 1.76112 3.09133V5.54567H0.224824C0.112412 5.54567 0 5.63934 0 5.77049V8.3185C0 8.43091 0.093677 8.54333 0.224824 8.54333H1.76112V8.67447Z" fill="#D3B498"/>
</svg>
