<svg width="16" height="17" viewBox="0 0 16 17" fill="none" xmlns="http://www.w3.org/2000/svg">
<path d="M12.2048 3.64272C11.6865 3.64272 11.2685 4.0607 11.2685 4.57898C11.2685 5.09727 11.6865 5.51524 12.2048 5.51524C12.7231 5.51524 13.1411 5.09727 13.1411 4.57898C13.1411 4.0607 12.7231 3.64272 12.2048 3.64272ZM8.02508 4.84649C5.85162 4.84649 4.07941 6.61869 4.07941 8.79215C4.07941 10.9656 5.85162 12.7378 8.02508 12.7378C10.1985 12.7378 11.9707 10.9656 11.9707 8.79215C11.9707 6.61869 10.1985 4.84649 8.02508 4.84649ZM8.02508 11.3334C6.62069 11.3334 5.50052 10.1965 5.50052 8.80887C5.50052 7.40448 6.63741 6.28431 8.02508 6.28431C9.42947 6.28431 10.5496 7.4212 10.5496 8.80887C10.5496 10.1965 9.41275 11.3334 8.02508 11.3334ZM16 5.51524C16 2.85694 13.8433 0.700195 11.185 0.700195H4.81505C2.15674 0.700195 0 2.85694 0 5.51524V11.8851C0 14.5435 2.15674 16.7002 4.81505 16.7002H11.1682C13.8265 16.7002 15.9833 14.5435 15.9833 11.8851V5.51524H16ZM14.4786 11.8684C14.4786 13.6908 12.9906 15.1788 11.1682 15.1788H4.81505C2.99269 15.1788 1.5047 13.6908 1.5047 11.8684V5.51524C1.5047 3.67616 2.97597 2.2049 4.81505 2.2049H11.1682C12.9906 2.2049 14.4786 3.69288 14.4786 5.51524V11.8684Z" fill="#D3B498"/>
</svg>
