<svg width="38" height="38" viewBox="0 0 38 38" fill="none" xmlns="http://www.w3.org/2000/svg">
<path d="M27.3693 0.666626H10.6294C5.13542 0.666626 0.666016 5.13603 0.666016 10.63V27.3699C0.666016 32.8639 5.13542 37.3333 10.6294 37.3333H27.3693C32.8633 37.3333 37.3327 32.8639 37.3327 27.3699V10.63C37.3327 5.13603 32.8633 0.666626 27.3693 0.666626ZM33.9993 27.3699C33.9993 31.0255 31.0249 34 27.3693 34H10.6294C6.97379 34 3.99935 31.0255 3.99935 27.3699V10.63C3.99935 6.97441 6.97379 3.99996 10.6294 3.99996H27.3693C31.0249 3.99996 33.9993 6.97441 33.9993 10.63V27.3699ZM18.9993 8.99996C13.485 8.99996 8.99935 13.4856 8.99935 19C8.99935 24.5143 13.485 29 18.9993 29C24.5137 29 28.9993 24.5143 28.9993 19C28.9993 13.4856 24.5137 8.99996 18.9993 8.99996ZM18.9993 25.6666C15.3234 25.6666 12.3327 22.6759 12.3327 19C12.3327 15.324 15.3234 12.3333 18.9993 12.3333C22.6753 12.3333 25.666 15.324 25.666 19C25.666 22.6759 22.6753 25.6666 18.9993 25.6666ZM28.9993 7.33329C28.0806 7.33329 27.3327 8.08118 27.3327 8.99996C27.3327 9.91874 28.0806 10.6666 28.9993 10.6666C29.9181 10.6666 30.666 9.91874 30.666 8.99996C30.666 8.08118 29.9181 7.33329 28.9993 7.33329Z" fill="url(#paint0_radial)"/>
<path d="M27.3693 0.666626H10.6294C5.13542 0.666626 0.666016 5.13603 0.666016 10.63V27.3699C0.666016 32.8639 5.13542 37.3333 10.6294 37.3333H27.3693C32.8633 37.3333 37.3327 32.8639 37.3327 27.3699V10.63C37.3327 5.13603 32.8633 0.666626 27.3693 0.666626Z" fill="url(#paint1_linear)"/>
<defs>
<radialGradient id="paint0_radial" cx="0" cy="0" r="1" gradientUnits="userSpaceOnUse" gradientTransform="translate(3.09657 36.0138) scale(44.6921)">
<stop stop-color="#FFD35A"/>
<stop offset="0.254854" stop-color="#F7964C"/>
<stop offset="0.599514" stop-color="#F05B70"/>
<stop offset="0.717456" stop-color="#BD6186"/>
<stop offset="0.853229" stop-color="#85659B"/>
<stop offset="0.950948" stop-color="#5C66A9"/>
<stop offset="1" stop-color="#4766B0"/>
</radialGradient>
<linearGradient id="paint1_linear" x1="-0.111014" y1="10.0887" x2="38.1097" y2="27.9113" gradientUnits="userSpaceOnUse">
<stop stop-color="white" stop-opacity="0.2"/>
<stop offset="1" stop-color="white" stop-opacity="0"/>
</linearGradient>
</defs>
</svg>
