<svg width="17" height="17" viewBox="0 0 17 17" fill="none" xmlns="http://www.w3.org/2000/svg">
<path d="M12.9676 3.12644C12.4169 3.12644 11.9728 3.57053 11.9728 4.12121C11.9728 4.67189 12.4169 5.11599 12.9676 5.11599C13.5183 5.11599 13.9624 4.67189 13.9624 4.12121C13.9624 3.57053 13.5183 3.12644 12.9676 3.12644ZM8.52665 4.40543C6.21735 4.40543 4.33438 6.2884 4.33438 8.5977C4.33438 10.907 6.21735 12.79 8.52665 12.79C10.8359 12.79 12.7189 10.907 12.7189 8.5977C12.7189 6.2884 10.8359 4.40543 8.52665 4.40543ZM8.52665 11.2978C7.03448 11.2978 5.8443 10.0899 5.8443 8.61546C5.8443 7.1233 7.05225 5.93312 8.52665 5.93312C10.0188 5.93312 11.209 7.14107 11.209 8.61546C11.209 10.0899 10.001 11.2978 8.52665 11.2978ZM17 5.11599C17 2.29154 14.7085 0 11.884 0H5.11599C2.29154 0 0 2.29154 0 5.11599V11.884C0 14.7085 2.29154 17 5.11599 17H11.8662C14.6907 17 16.9822 14.7085 16.9822 11.884V5.11599H17ZM15.3835 11.8662C15.3835 13.8025 13.8025 15.3835 11.8662 15.3835H5.11599C3.17973 15.3835 1.59875 13.8025 1.59875 11.8662V5.11599C1.59875 3.16196 3.16196 1.59875 5.11599 1.59875H11.8662C13.8025 1.59875 15.3835 3.17973 15.3835 5.11599V11.8662Z" fill="white"/>
</svg>
