<svg width="12" height="37" viewBox="0 0 12 37" fill="none" xmlns="http://www.w3.org/2000/svg">
<path d="M0.710057 24.9065C1.49112 25.8755 2.16568 26.9162 2.80473 28.0287C3.23077 28.8182 4.08284 30.5049 5.39645 33.1606C6.67455 35.7804 7.45562 37.0724 7.70414 37.0006L7.88166 36.9288L8.20118 36.4982C8.73373 33.7707 9.37278 31.115 10.0828 28.4952C10.2604 27.8852 10.4379 27.2392 10.5799 26.5573C10.6509 26.4138 10.6864 26.2702 10.7219 26.0908C11.1479 24.4041 11.574 22.7174 12 21.0665C12 21.0307 12 20.9948 12 20.9589C11.9645 20.8512 11.9645 20.7436 11.8935 20.6718C11.858 20.6718 11.787 20.7077 11.716 20.7436C11.716 20.7794 11.716 20.7794 11.716 20.7794C11.6805 20.8512 11.6805 20.8871 11.6805 20.9589C11.645 21.0307 11.6095 21.1024 11.574 21.2101C11.645 20.7794 11.716 20.3847 11.7515 19.954L11.2189 19.8105C11.0414 19.9899 10.8994 20.2411 10.7929 20.4565C9.86982 22.7891 9.12426 25.1936 8.52071 27.5981C8.52071 24.117 8.48521 20.7794 8.3432 17.6931C8.23669 14.5709 8.13018 11.664 8.05917 8.90068C8.09468 8.50592 8.09468 8.07527 8.09468 7.64462C8.05917 7.64462 8.02367 7.60873 7.98817 7.57285C7.98817 7.07042 7.98817 6.568 7.98817 6.06557C7.95266 4.2712 7.81065 2.5486 7.56213 0.790111C7.52663 0.790111 7.45562 0.790111 7.42012 0.790111C7.34911 0.897773 7.34911 1.00544 7.31361 1.14899C7.31361 1.43608 7.27811 1.75907 7.31361 2.04617C7.27811 2.08206 7.27811 2.08206 7.27811 2.08206C7.2071 3.26635 7.1716 4.48652 7.1716 5.7067C7.1716 6.568 7.1716 7.4293 7.1716 8.2906C7.1716 8.36237 7.1716 8.47003 7.1361 8.54181C7.1361 8.21882 7.1361 7.85995 7.1361 7.53696C7.1361 5.74258 7.1361 3.9841 7.1361 2.22561C7.10059 2.18972 7.06509 2.18972 7.02959 2.15383C6.99408 2.18972 6.95858 2.18972 6.92308 2.22561C6.92308 2.22561 6.92308 2.2615 6.88758 2.2615C6.88758 2.33327 6.85207 2.36916 6.81657 2.40505C6.78107 2.79981 6.78107 3.19457 6.78107 3.55345C6.71006 5.20427 6.71006 6.85509 6.71006 8.50592C6.67456 7.39341 6.63905 6.2809 6.60355 5.20427C6.56805 3.44579 6.46154 1.72319 6.31953 0.000586967C6.24852 0.000586961 6.21302 0.000586957 6.17752 0.000586954C6.17752 0.0364756 6.14201 0.0723605 6.14201 0.0723605C6.07101 0.467124 6.07101 0.861888 6.03551 1.22076C5.9645 3.01514 6 4.77362 6.10651 6.53211C6.17752 7.50107 6.21302 8.47003 6.24852 9.40311C6.21302 9.1519 6.21302 8.8648 6.17752 8.5777C6.17752 8.5777 6.14201 8.54181 6.14201 8.50592L6.10651 8.50592C6.10651 8.18293 6.07101 7.85995 6 7.53696C5.929 7.4293 5.85799 7.32163 5.82249 7.1422C5.78698 7.17808 5.75148 7.21397 5.71598 7.24986C5.71598 7.24986 5.71598 7.28575 5.71598 7.32163C5.68047 7.39341 5.64497 7.50107 5.64497 7.57284C5.68047 7.60873 5.71598 7.64462 5.71598 7.7164C5.71598 7.7164 5.71598 7.75228 5.71598 7.78817C5.71598 8.29059 5.71598 8.82891 5.71598 9.36722C5.68047 9.76198 5.64497 10.1567 5.64497 10.5874C5.64497 12.3459 5.68047 14.1403 5.82249 15.8987C5.92899 17.6572 6 19.4516 6 21.2101C6 23.0045 5.9645 24.763 5.85799 26.5214C5.82248 26.8803 5.78698 27.311 5.75148 27.6698C5.71598 27.5263 5.64497 27.3468 5.57396 27.1674C5.00592 25.696 4.26035 24.3323 3.33728 23.0762C3.26627 23.1121 3.23077 23.1121 3.15976 23.148C3.33728 23.4351 3.47929 23.7222 3.6213 23.9734C3.86982 24.5117 4.11834 25.0142 4.33136 25.5166C3.94083 24.8706 3.44379 24.2964 2.91124 23.7581C2.55621 23.3992 2.20118 23.0762 1.81065 22.7533L1.2071 23.1839C1.2426 23.3992 1.27811 23.5787 1.34911 23.7581C1.84615 24.8347 2.30769 25.9114 2.73373 26.988C2.02367 25.7678 1.13609 24.6912 0.106508 23.7222C0.0710041 23.7581 0.0355017 23.794 -1.70936e-06 23.8299C0.213017 24.1888 0.461537 24.5476 0.710057 24.9065Z" fill="#D3B498"/>
</svg>
